<?xml version="1.0" standalone="no"?>
<!DOCTYPE svg PUBLIC "-//W3C//DTD SVG 20010904//EN"
 "http://www.w3.org/TR/2001/REC-SVG-20010904/DTD/svg10.dtd">
<svg version="1.0" xmlns="http://www.w3.org/2000/svg"
 width="960.000000pt" height="302.000000pt" viewBox="0 0 960.000000 302.000000"
 preserveAspectRatio="xMidYMid meet">

<g transform="translate(0.000000,302.000000) scale(0.100000,-0.100000)"
fill="#000000" stroke="none">
<path d="M4760 2998 c-65 -34 -85 -67 -85 -143 0 -48 5 -70 21 -92 24 -33 97
-73 134 -73 40 0 113 42 137 79 17 24 23 49 23 86 0 37 -6 62 -23 86 -24 37
-97 79 -137 79 -14 0 -46 -10 -70 -22z"/>
<path d="M4582 2603 c2 -9 17 -21 35 -27 53 -18 67 -39 71 -111 l4 -65 -29 0
c-40 0 -127 -27 -188 -57 -64 -33 -165 -130 -198 -191 -69 -128 -77 -292 -20
-415 54 -114 163 -211 356 -316 l77 -42 0 -280 c0 -320 -2 -330 -70 -350 -28
-9 -40 -18 -40 -31 0 -17 14 -18 250 -18 240 0 250 1 250 19 0 13 -9 21 -29
26 -16 3 -39 17 -52 31 -23 25 -24 30 -27 236 l-3 210 61 -34 c94 -51 183
-137 221 -214 42 -84 45 -180 10 -261 -28 -62 -106 -140 -180 -177 -204 -104
-540 -6 -687 200 -45 63 -104 181 -104 209 0 8 -9 15 -20 15 -19 0 -20 -7 -20
-250 0 -266 2 -277 46 -229 28 31 68 49 111 49 21 0 109 -24 195 -54 l157 -53
-29 -21 c-38 -28 -65 -100 -55 -149 7 -37 49 -86 109 -127 26 -17 28 -22 22
-68 -7 -47 -6 -49 16 -46 16 2 43 32 92 107 55 82 70 113 74 151 4 48 -12 94
-42 119 -23 20 -19 31 10 31 48 0 148 31 233 72 112 53 205 146 257 255 34 70
38 87 42 179 4 84 1 114 -16 171 -27 86 -81 171 -159 246 -80 77 -116 101
-408 262 -137 76 -280 157 -316 181 -78 52 -154 130 -176 182 -23 55 -21 148
4 197 41 77 140 146 231 161 l42 7 0 -264 0 -264 138 -77 137 -76 5 432 c6
484 5 478 75 492 25 4 35 11 35 25 0 18 -12 19 -251 19 -228 0 -250 -1 -247
-17z"/>
<path d="M5272 2350 c-39 -49 -86 -48 -214 5 -15 6 -18 2 -18 -27 0 -29 7 -39
51 -73 28 -21 68 -62 89 -89 59 -80 78 -123 104 -238 4 -19 13 -28 26 -28 19
0 20 7 20 240 0 222 -1 240 -17 239 -10 0 -28 -13 -41 -29z"/>
<path d="M730 1940 c-45 -45 -11 -120 53 -120 20 0 41 8 50 18 23 25 22 85 -1
105 -25 23 -78 21 -102 -3z"/>
<path d="M940 1940 c-26 -26 -26 -81 -2 -103 25 -23 78 -21 102 3 43 43 11
120 -50 120 -17 0 -39 -9 -50 -20z"/>
<path d="M2611 1934 c-42 -53 -13 -114 53 -114 37 0 76 36 76 70 0 34 -39 70
-75 70 -24 0 -39 -7 -54 -26z"/>
<path d="M8989 1766 c-89 -32 -135 -95 -126 -172 9 -82 56 -120 184 -150 154
-35 173 -45 173 -88 0 -74 -160 -87 -260 -22 l-36 24 -44 -39 -45 -39 25 -22
c14 -11 50 -32 80 -47 47 -22 69 -25 155 -26 118 0 179 19 224 70 54 62 51
163 -7 217 -34 33 -80 52 -179 73 -102 23 -133 39 -133 70 0 58 108 75 196 30
57 -29 69 -27 113 19 l33 34 -40 27 c-22 14 -61 33 -88 41 -58 17 -177 18
-225 0z"/>
<path d="M0 1715 l0 -55 100 0 100 0 0 -235 0 -235 65 0 65 0 0 235 0 235 95
0 95 0 0 55 0 55 -260 0 -260 0 0 -55z"/>
<path d="M612 1568 c5 -214 10 -239 58 -301 52 -66 182 -100 292 -78 79 17
134 59 166 129 25 54 27 66 30 255 l4 197 -65 0 -65 0 -4 -187 c-3 -152 -7
-194 -21 -220 -49 -93 -188 -95 -242 -3 -18 31 -20 56 -23 223 l-4 187 -65 0
-65 0 4 -202z"/>
<path d="M1280 1480 l0 -290 65 0 65 0 0 105 0 106 72 -3 72 -3 59 -102 59
-103 74 0 75 0 -17 33 c-9 17 -36 66 -60 108 -24 42 -44 79 -44 82 0 3 16 14
35 23 52 24 78 67 83 136 5 70 -9 108 -54 148 -50 43 -90 50 -296 50 l-188 0
0 -290z m385 155 c14 -13 25 -36 25 -50 0 -14 -11 -37 -25 -50 -23 -24 -30
-25 -140 -25 l-115 0 0 75 0 75 115 0 c110 0 117 -1 140 -25z"/>
<path d="M1930 1480 l0 -290 65 0 65 0 0 83 0 83 58 57 59 58 89 -140 89 -140
78 -1 c42 0 77 2 77 5 0 2 -54 89 -121 191 l-120 187 98 99 98 98 -80 0 -80 1
-122 -128 -122 -128 -1 128 0 127 -65 0 -65 0 0 -290z"/>
<path d="M2600 1480 l0 -290 65 0 65 0 0 290 0 290 -65 0 -65 0 0 -290z"/>
<path d="M2846 1703 c27 -38 83 -117 126 -177 l78 -109 0 -113 0 -114 65 0 65
0 0 115 0 115 103 142 c57 79 113 158 126 176 l22 32 -74 0 -75 0 -83 -125
-83 -124 -83 124 -83 125 -76 0 -76 0 48 -67z"/>
<path d="M3490 1480 l0 -290 240 0 240 0 0 55 0 55 -175 0 -176 0 3 73 3 72
98 3 97 3 0 54 0 55 -100 0 -100 0 0 50 0 50 170 0 170 0 0 55 0 55 -235 0
-235 0 0 -290z"/>
<path d="M5710 1480 l0 -290 176 0 c197 0 245 8 299 53 85 69 86 191 2 245
l-27 18 25 24 c52 49 54 140 2 188 -48 45 -84 52 -287 52 l-190 0 0 -290z
m358 174 c14 -9 22 -26 22 -43 0 -48 -21 -56 -144 -56 l-111 0 -3 44 c-5 71
-5 71 110 71 78 0 109 -4 126 -16z m22 -224 c30 -30 27 -83 -6 -109 -23 -18
-41 -21 -140 -21 l-114 0 0 75 0 75 120 0 c107 0 122 -2 140 -20z"/>
<path d="M6520 1743 c-28 -63 -240 -546 -240 -549 0 -2 31 -4 69 -4 l69 0 25
63 25 62 127 0 127 0 25 -62 25 -63 73 0 74 0 -65 148 c-36 81 -93 211 -127
290 l-62 142 -66 0 c-62 0 -67 -2 -79 -27z m113 -208 c14 -38 29 -78 33 -87 5
-16 -2 -18 -70 -18 -42 0 -76 2 -76 5 0 2 13 37 28 77 16 40 32 82 36 92 9 26
17 14 49 -69z"/>
<path d="M6980 1480 l0 -290 65 0 65 0 0 193 c1 172 2 190 15 172 9 -11 75
-98 148 -192 l132 -173 63 0 62 0 0 290 0 290 -65 0 -65 0 -2 -184 -3 -185
-140 182 -141 182 -67 3 -67 3 0 -291z"/>
<path d="M7660 1480 l0 -290 65 0 65 0 0 88 0 88 55 54 c35 35 58 51 63 44 4
-6 45 -70 92 -143 l85 -131 125 2 124 3 25 63 24 62 127 0 127 0 24 -62 25
-63 72 -3 c40 -2 72 -1 72 1 0 2 -56 132 -124 288 l-124 284 -69 3 -68 2 -115
-264 c-85 -195 -118 -262 -126 -253 -6 7 -55 81 -108 164 l-98 153 92 97 91
98 -74 3 -74 3 -80 -83 c-44 -46 -98 -103 -121 -128 l-41 -45 -1 128 0 127
-65 0 -65 0 0 -290z m891 47 l37 -92 -39 -3 c-22 -2 -56 -2 -78 0 l-38 3 36
92 c20 51 38 93 41 93 3 0 21 -42 41 -93z"/>
<path d="M9470 1480 l0 -290 65 0 65 0 0 290 0 290 -65 0 -65 0 0 -290z"/>
</g>
</svg>
