<?xml version="1.0" standalone="no"?>
<!DOCTYPE svg PUBLIC "-//W3C//DTD SVG 20010904//EN"
 "http://www.w3.org/TR/2001/REC-SVG-20010904/DTD/svg10.dtd">
<svg version="1.0" xmlns="http://www.w3.org/2000/svg"
 width="200.000000pt" height="200.000000pt" viewBox="0 0 200.000000 200.000000"
 preserveAspectRatio="xMidYMid meet">

<g transform="translate(0.000000,200.000000) scale(0.100000,-0.100000)"
fill="#000000" stroke="none">
<path d="M68 1223 c-10 -12 -22 -60 -32 -138 -9 -66 -20 -139 -25 -162 l-8
-43 37 0 38 0 9 63 8 62 75 5 c89 6 117 20 136 65 23 55 18 108 -12 136 -22
21 -37 24 -117 27 -80 3 -95 1 -109 -15z m170 -55 c17 -17 15 -64 -4 -82 -11
-11 -34 -16 -76 -16 -53 0 -59 2 -53 18 4 9 9 34 12 55 l6 37 51 0 c29 0 57
-5 64 -12z"/>
<path d="M1891 1188 c-17 -87 -41 -290 -35 -299 3 -5 16 -9 29 -9 28 0 29 3
44 128 12 92 15 102 36 102 8 0 19 9 25 20 9 17 8 20 -10 20 -16 0 -20 6 -20
33 0 36 -15 57 -41 57 -13 0 -20 -13 -28 -52z"/>
<path d="M414 1154 c-12 -3 -34 -18 -49 -35 l-29 -29 38 0 c20 0 46 5 56 10
27 14 70 2 70 -19 0 -20 -39 -41 -74 -41 -50 0 -83 -20 -102 -62 -16 -36 -16
-43 -3 -66 31 -55 135 -54 196 1 32 30 35 39 45 115 10 79 10 85 -10 104 -20
21 -92 32 -138 22z m71 -183 c-29 -56 -109 -65 -103 -12 2 21 12 29 53 43 28
9 54 13 58 8 5 -4 1 -22 -8 -39z"/>
<path d="M1404 1150 c-18 -6 -39 -21 -48 -35 -16 -25 -16 -25 12 -25 16 0 43
5 60 11 22 7 36 7 51 -1 34 -18 25 -38 -21 -50 -106 -27 -123 -35 -136 -63 -9
-17 -11 -42 -8 -62 8 -42 52 -60 121 -49 69 10 99 40 119 121 21 87 20 116 -2
136 -22 20 -107 29 -148 17z m82 -175 c-9 -34 -49 -59 -82 -51 -20 5 -25 12
-22 34 2 23 11 30 53 44 53 17 61 13 51 -27z"/>
<path d="M1683 1152 c-60 -19 -80 -62 -108 -234 -6 -38 -6 -38 28 -38 40 0 42
4 53 110 8 85 24 110 69 110 29 0 36 -4 41 -27 4 -15 2 -52 -4 -83 -7 -31 -12
-68 -12 -83 0 -24 4 -27 34 -27 l33 0 11 100 c16 137 3 166 -79 174 -24 3 -54
2 -66 -2z"/>
<path d="M606 1093 c7 -32 21 -100 30 -151 18 -102 12 -122 -32 -122 -20 0
-24 -5 -24 -30 0 -26 3 -30 29 -30 56 0 62 9 211 308 l41 83 -37 -3 c-37 -3
-38 -5 -75 -88 -21 -46 -42 -86 -47 -88 -5 -1 -12 28 -16 65 -11 110 -13 113
-56 113 l-38 0 14 -57z"/>
<path d="M1226 1007 c3 -10 9 -15 12 -12 3 3 0 11 -7 18 -10 9 -11 8 -5 -6z"/>
<path d="M975 949 c-4 -6 -5 -12 -2 -15 2 -3 7 2 10 11 7 17 1 20 -8 4z"/>
</g>
</svg>
