<?xml version="1.0" standalone="no"?>
<!DOCTYPE svg PUBLIC "-//W3C//DTD SVG 20010904//EN"
 "http://www.w3.org/TR/2001/REC-SVG-20010904/DTD/svg10.dtd">
<svg version="1.0" xmlns="http://www.w3.org/2000/svg"
 width="1182.000000pt" height="343.000000pt" viewBox="0 0 1182.000000 343.000000"
 preserveAspectRatio="xMidYMid meet">

<g transform="translate(0.000000,343.000000) scale(0.100000,-0.100000)"
fill="#000000" stroke="none">
<path d="M7977 3380 c-144 -37 -237 -150 -245 -302 -8 -143 52 -249 175 -310
58 -28 78 -33 143 -33 96 0 159 24 223 84 71 66 99 128 105 227 4 72 1 88 -23
141 -33 74 -92 134 -166 167 -63 29 -155 40 -212 26z"/>
<path d="M1955 3192 c-121 -42 -226 -81 -233 -85 -19 -13 -18 -2310 2 -2326 9
-8 83 -11 247 -9 l234 3 6 535 c4 365 10 549 18 580 48 179 170 268 355 258
136 -7 213 -62 259 -186 21 -55 22 -72 25 -611 2 -379 6 -559 14 -568 16 -20
471 -19 488 2 19 23 8 1193 -13 1297 -37 186 -97 309 -196 401 -175 163 -542
194 -769 65 -29 -17 -79 -54 -111 -84 -32 -30 -61 -54 -65 -54 -3 0 -7 192 -8
427 -3 371 -5 428 -18 430 -8 1 -114 -33 -235 -75z"/>
<path d="M605 2620 c-272 -43 -467 -187 -542 -401 -21 -61 -26 -91 -26 -174 1
-176 60 -299 187 -390 111 -79 240 -125 488 -175 180 -36 267 -72 298 -122 59
-98 -19 -203 -172 -228 -175 -30 -316 35 -383 176 -14 29 -25 58 -25 63 0 6
-8 11 -17 11 -29 0 -383 -122 -398 -137 -12 -11 -12 -20 0 -54 59 -167 204
-321 372 -395 110 -49 215 -68 373 -68 115 0 163 5 235 23 344 84 542 344 497
654 -34 239 -198 381 -529 462 -76 18 -181 43 -233 55 -116 25 -177 55 -208
101 -44 63 -14 132 76 176 49 24 68 27 147 27 135 0 196 -37 256 -156 19 -38
35 -58 47 -57 9 0 98 28 197 63 l180 62 -1 32 c-1 17 -19 66 -40 109 -76 154
-232 277 -411 324 -90 23 -276 33 -368 19z"/>
<path d="M4403 2619 c-387 -50 -713 -338 -803 -711 -127 -521 185 -1031 710
-1160 127 -31 311 -29 444 6 369 96 646 398 706 769 16 97 8 299 -16 387 -124
467 -570 771 -1041 709z m227 -485 c158 -36 286 -154 340 -315 18 -53 21 -81
18 -164 -3 -91 -7 -107 -41 -179 -90 -189 -295 -301 -495 -268 -92 16 -201 71
-265 137 -266 269 -126 718 248 795 64 13 121 11 195 -6z"/>
<path d="M6565 2616 c-139 -27 -261 -89 -352 -179 l-53 -51 0 106 c0 77 -4
109 -14 117 -10 9 -64 -6 -237 -65 -123 -43 -227 -82 -231 -88 -9 -13 -11
-2407 -2 -2430 3 -9 16 -16 28 -15 11 0 122 35 246 77 l225 77 5 389 c5 383 5
388 24 367 33 -36 122 -90 193 -117 188 -71 412 -73 610 -5 211 73 393 238
488 443 125 270 123 603 -5 876 -142 302 -425 493 -750 507 -66 3 -131 0 -175
-9z m226 -484 c136 -36 243 -127 308 -262 35 -73 36 -78 36 -195 0 -115 -1
-123 -32 -188 -42 -89 -83 -140 -155 -193 -99 -72 -239 -106 -353 -85 -184 34
-334 171 -380 346 -42 164 4 334 125 455 120 119 287 165 451 122z"/>
<path d="M9370 2624 c-19 -3 -73 -12 -120 -20 -334 -61 -602 -311 -705 -659
-33 -111 -45 -302 -25 -423 17 -105 70 -250 127 -346 60 -99 194 -238 290
-300 331 -213 765 -201 1088 29 67 47 176 158 223 227 39 57 112 201 112 222
0 25 -27 31 -244 57 l-199 23 -21 -29 c-11 -17 -50 -60 -86 -96 -155 -156
-371 -190 -575 -90 -69 34 -168 113 -154 124 2 2 299 105 659 228 l655 224 -2
42 c-2 56 -72 231 -136 339 -64 109 -222 274 -312 326 -77 44 -174 83 -256
103 -66 15 -257 27 -319 19z m215 -448 c28 -7 73 -25 101 -39 66 -34 158 -107
147 -117 -11 -11 -876 -309 -884 -304 -14 8 14 124 46 192 61 130 182 226 335
266 70 19 190 20 255 2z"/>
<path d="M11403 2615 c-111 -24 -215 -95 -301 -204 l-19 -24 -28 74 c-48 130
-26 119 -248 119 -137 0 -196 -3 -205 -12 -19 -19 -17 -1771 2 -1787 9 -8 85
-11 252 -9 l239 3 6 540 c4 403 9 550 18 580 36 111 96 186 180 227 63 30 197
37 261 13 92 -35 83 -45 175 190 45 115 81 215 78 221 -7 18 -93 53 -168 69
-85 18 -160 18 -242 0z"/>
<path d="M7807 2573 c-4 -3 -7 -408 -7 -899 0 -804 2 -892 16 -898 31 -12 469
-7 482 6 17 17 17 1769 0 1786 -13 13 -479 18 -491 5z"/>
</g>
</svg>
